<svg width="25" height="24" viewBox="0 0 25 24" fill="none" xmlns="http://www.w3.org/2000/svg">
<path d="M20.8 13.2105L17.9552 11.0821C17.1387 10.5378 16.0479 10.6663 15.3802 11.3853C13.8877 12.9926 12.1574 14.4538 9.80005 14.4538C7.62735 14.4538 6.18755 13.6485 4.80005 12.261M21.05 13.5V5.75C21.05 4.64543 20.1546 3.75 19.05 3.75H6.55005C5.44545 3.75 4.55005 4.64543 4.55005 5.75V18.25C4.55005 19.3546 5.44545 20.25 6.55005 20.25H15.3M7.55005 8.75C7.55005 9.85457 8.44545 10.75 9.55005 10.75C10.6546 10.75 11.55 9.85457 11.55 8.75C11.55 7.64543 10.6546 6.75 9.55005 6.75C8.44545 6.75 7.55005 7.64543 7.55005 8.75Z" stroke="black" stroke-width="1.5" stroke-linecap="round"/>
<path d="M22.3115 18.4764H19.4831M19.4831 18.4764H16.6547M19.4831 18.4764V15.6479M19.4831 18.4764V21.3048" stroke="black" stroke-width="1.5" stroke-linecap="round" stroke-linejoin="round"/>
</svg>
