<svg width="25" height="24" viewBox="0 0 25 24" fill="none" xmlns="http://www.w3.org/2000/svg">
<path d="M9.54798 17.75V17.1005C9.54798 16.7224 9.33157 16.3816 9.00943 16.1838C8.79269 16.0506 8.5835 15.9064 8.38262 15.7519C6.65906 14.4264 5.54828 12.3433 5.54828 10.0009C5.54828 5.99633 8.79461 2.75 12.7992 2.75C16.8037 2.75 20.05 5.99633 20.05 10.0009C20.05 12.3433 18.9393 14.4264 17.2157 15.7519C17.0148 15.9064 16.8056 16.0506 16.5889 16.1838C16.2668 16.3816 16.0503 16.7224 16.0503 17.1005V17.75M9.54798 17.75V18.9988C9.54798 20.7944 11.0036 22.25 12.7992 22.25C14.5947 22.25 16.0503 20.7944 16.0503 18.9988V17.75M9.54798 17.75H16.0503" stroke="black" stroke-width="1.5" stroke-linecap="square" stroke-linejoin="round"/>
</svg>
