<svg width="25" height="24" viewBox="0 0 25 24" fill="none" xmlns="http://www.w3.org/2000/svg">
<path d="M12.8 4.21173C15.3365 4.21173 15.637 4.22123 16.6389 4.267C17.2411 4.27427 17.8377 4.38499 18.4024 4.59432C18.8151 4.74662 19.1884 4.9895 19.4949 5.30509C19.8105 5.61156 20.0534 5.98488 20.2057 6.39759C20.415 6.96235 20.5257 7.55888 20.533 8.16114C20.5788 9.16295 20.5883 9.4635 20.5883 12C20.5883 14.5365 20.5788 14.837 20.533 15.8389C20.5257 16.4411 20.415 17.0377 20.2057 17.6024C20.0476 18.0122 19.8055 18.3844 19.4949 18.6949C19.1844 19.0055 18.8122 19.2476 18.4024 19.4057C17.8377 19.615 17.2411 19.7257 16.6389 19.733C15.637 19.7788 15.3365 19.7883 12.8 19.7883C10.2635 19.7883 9.963 19.7788 8.96119 19.733C8.35864 19.7258 7.76181 19.6151 7.19678 19.4057C6.78438 19.2533 6.41137 19.0104 6.10514 18.6949C5.78955 18.3884 5.54667 18.0151 5.39437 17.6024C5.18504 17.0377 5.07432 16.4411 5.06705 15.8389C5.02128 14.837 5.01178 14.5365 5.01178 12C5.01178 9.4635 5.02128 9.16295 5.06705 8.16114C5.07432 7.55888 5.18504 6.96235 5.39437 6.39759C5.54667 5.98488 5.78955 5.61156 6.10514 5.30509C6.41161 4.9895 6.78493 4.74662 7.19764 4.59432C7.7624 4.38499 8.35893 4.27427 8.96119 4.267C9.963 4.22123 10.2635 4.21173 12.8 4.21173ZM12.8 2.5C10.2204 2.5 9.8965 2.51123 8.88346 2.557C8.0954 2.57272 7.31572 2.72194 6.57755 2.99832C5.94335 3.2371 5.36891 3.61141 4.89432 4.09514C4.41101 4.56956 4.037 5.14369 3.79837 5.7775C3.52229 6.51572 3.37336 7.2954 3.35791 8.08341C3.31041 9.09645 3.30005 9.42032 3.30005 12C3.30005 14.5797 3.31128 14.9035 3.35705 15.9166C3.37277 16.7046 3.52199 17.4843 3.79837 18.2225C4.03715 18.8567 4.41146 19.4311 4.89519 19.9057C5.36961 20.389 5.94374 20.763 6.57755 21.0017C7.31577 21.2778 8.09545 21.4267 8.88346 21.4421C9.8965 21.4896 10.2204 21.5 12.8 21.5C15.3797 21.5 15.7035 21.4888 16.7166 21.443C17.5046 21.4273 18.2843 21.2781 19.0225 21.0017C19.6538 20.7576 20.2271 20.3843 20.7057 19.9057C21.1843 19.4271 21.5576 18.8538 21.8017 18.2225C22.0778 17.4843 22.2267 16.7046 22.2421 15.9166C22.2896 14.9035 22.3 14.5797 22.3 12C22.3 9.42032 22.2888 9.09645 22.243 8.08341C22.2274 7.29535 22.0781 6.51567 21.8017 5.7775C21.5629 5.1433 21.1886 4.56886 20.7049 4.09427C20.2304 3.61096 19.6563 3.23695 19.0225 2.99832C18.2843 2.72224 17.5046 2.57331 16.7166 2.55786C15.7035 2.51036 15.3797 2.5 12.8 2.5ZM12.8 7.12132C11.8351 7.12132 10.8918 7.40745 10.0896 7.94352C9.2873 8.4796 8.66199 9.24155 8.29274 10.133C7.92348 11.0245 7.82687 12.0054 8.01511 12.9518C8.20336 13.8982 8.66801 14.7675 9.3503 15.4497C10.0326 16.132 10.9018 16.5967 11.8482 16.7849C12.7946 16.9732 13.7755 16.8766 14.667 16.5073C15.5585 16.1381 16.3204 15.5127 16.8565 14.7105C17.3926 13.9082 17.6787 12.9649 17.6787 12C17.6787 10.7061 17.1647 9.46518 16.2497 8.55025C15.3348 7.63532 14.0939 7.12132 12.8 7.12132ZM12.8 15.167C12.1736 15.167 11.5613 14.9812 11.0405 14.6332C10.5198 14.2852 10.1139 13.7906 9.87417 13.2119C9.63447 12.6333 9.57175 11.9965 9.69395 11.3822C9.81615 10.7678 10.1178 10.2035 10.5607 9.76063C11.0035 9.31772 11.5678 9.0161 12.1822 8.8939C12.7965 8.7717 13.4333 8.83442 14.0119 9.07412C14.5906 9.31382 15.0852 9.71973 15.4332 10.2405C15.7812 10.7613 15.967 11.3736 15.967 12C15.967 12.8399 15.6333 13.6455 15.0394 14.2394C14.4455 14.8333 13.6399 15.167 12.8 15.167ZM17.8713 5.78873C17.6458 5.78873 17.4254 5.85559 17.2379 5.98085C17.0505 6.10612 16.9043 6.28416 16.8181 6.49247C16.7318 6.70078 16.7092 6.92999 16.7532 7.15113C16.7972 7.37227 16.9057 7.5754 17.0652 7.73483C17.2246 7.89426 17.4277 8.00284 17.6489 8.04682C17.87 8.09081 18.0992 8.06823 18.3075 7.98195C18.5158 7.89567 18.6939 7.74955 18.8191 7.56208C18.9444 7.37461 19.0113 7.1542 19.0113 6.92873C19.0113 6.62638 18.8912 6.33642 18.6774 6.12263C18.4636 5.90883 18.1736 5.78873 17.8713 5.78873Z" fill="black"/>
</svg>
