<svg width="25" height="25" viewBox="0 0 25 25" fill="none" xmlns="http://www.w3.org/2000/svg">
<path d="M10.1941 19.5009L10.0225 19.6724C8.46043 21.2345 5.92777 21.2345 4.36567 19.6724L4.02252 19.3293C2.46043 17.7672 2.46042 15.2345 4.02252 13.6724L7.36567 10.3293C8.92777 8.76719 11.4604 8.76719 13.0225 10.3293L13.3657 10.6724C14.0193 11.3261 14.3994 12.1496 14.5061 13.0009" stroke="#0B0C11" stroke-width="2" stroke-linecap="round" stroke-linejoin="round"/>
<path d="M9.88208 13.0009C9.98872 13.8521 10.3689 14.6757 11.0225 15.3293L11.3656 15.6724C12.9277 17.2345 15.4604 17.2345 17.0225 15.6724L20.3656 12.3293C21.9277 10.7672 21.9277 8.23453 20.3656 6.67243L20.0225 6.32929C18.4604 4.76719 15.9277 4.76719 14.3656 6.32929L14.1941 6.50086" stroke="#0B0C11" stroke-width="2" stroke-linecap="round" stroke-linejoin="round"/>
</svg>
