<svg width="50" height="50" viewBox="0 0 50 50" fill="none" xmlns="http://www.w3.org/2000/svg">
<g clip-path="url(#clip0_1770_51344)">
<rect width="50" height="50" rx="12.5" fill="#FF4500"/>
<path d="M37.4997 25.1746C37.5035 25.4294 37.4716 25.6838 37.404 25.9298C37.3364 26.1758 37.2341 26.4116 37.1 26.6292C36.9662 26.8469 36.802 27.045 36.6125 27.2175C36.4229 27.3901 36.2099 27.5352 35.9795 27.6486C35.9847 27.7165 35.9889 27.7849 35.9912 27.8533C35.9969 27.9896 35.9969 28.1262 35.9912 28.2625C35.9889 28.3309 35.9847 28.3992 35.9795 28.4671C35.9795 32.634 31.0811 36.0196 25.0379 36.0196C18.9947 36.0196 14.0963 32.634 14.0963 28.4671C14.0911 28.3992 14.0869 28.3309 14.0845 28.2625C14.0789 28.1262 14.0789 27.9896 14.0845 27.8533C14.0869 27.7849 14.0911 27.7165 14.0963 27.6486C13.7353 27.4842 13.4148 27.244 13.1568 26.9446C12.8987 26.6453 12.7094 26.294 12.6019 25.9149C12.4946 25.5357 12.4717 25.1379 12.5349 24.7491C12.5981 24.3603 12.7458 23.9898 12.9679 23.6632C13.1897 23.3366 13.4806 23.0618 13.8203 22.8578C14.16 22.6539 14.5405 22.5256 14.9352 22.4819C15.33 22.4381 15.7297 22.4798 16.1066 22.6043C16.4835 22.7288 16.8285 22.933 17.1179 23.2028C17.655 22.8419 18.2178 22.52 18.8018 22.2396C19.386 21.9597 19.9898 21.7216 20.6087 21.5281C21.2276 21.3346 21.86 21.1863 22.5005 21.0835C23.1409 20.9807 23.7884 20.9245 24.4373 20.9147L25.8261 14.4598C25.8416 14.3849 25.8721 14.3142 25.9158 14.251C25.9589 14.1882 26.0148 14.1343 26.079 14.0929C26.1438 14.0515 26.216 14.0231 26.2921 14.0092C26.3676 13.9957 26.4455 13.9971 26.5205 14.0134L31.1187 14.9249C31.5827 14.1347 32.5567 13.7962 33.4168 14.1254C34.2768 14.4547 34.7685 15.3546 34.5762 16.2484C34.3843 17.1422 33.565 17.7654 32.6445 17.7184C31.7234 17.6714 30.9732 16.9683 30.8747 16.0596L26.8584 15.2225L25.6385 21.0263C26.2794 21.0398 26.9189 21.0993 27.5514 21.204C28.8179 21.4132 30.0474 21.8026 31.2017 22.3601C31.7782 22.6382 32.3338 22.9571 32.8641 23.3144C33.2453 22.9515 33.7244 22.7059 34.2435 22.607C34.7626 22.5078 35.2995 22.5597 35.7895 22.7563C36.2795 22.9528 36.7017 23.2857 37.0052 23.7148C37.3087 24.1439 37.4804 24.6509 37.4997 25.1746V25.1746ZM18.8746 27.7468C18.9693 27.9723 19.1073 28.1774 19.2818 28.3499C19.4559 28.5229 19.6628 28.6597 19.8904 28.7536C20.1181 28.847 20.3622 28.895 20.6087 28.895C21.3679 28.895 22.0519 28.4416 22.3428 27.7468C22.6333 27.0515 22.4723 26.2516 21.9356 25.7196C21.3988 25.1876 20.5918 25.0281 19.8904 25.3159C19.1894 25.6043 18.7319 26.2823 18.7319 27.0348C18.7319 27.2789 18.7802 27.5208 18.8746 27.7468V27.7468ZM29.6238 32.2122C29.72 32.1192 29.7749 31.9922 29.7768 31.8592C29.7786 31.7257 29.7266 31.5974 29.6327 31.5021C29.5389 31.4067 29.4108 31.3523 29.2766 31.3504C29.1419 31.3486 29.0124 31.4002 28.9041 31.4807C28.6218 31.6813 28.323 31.8579 28.0107 32.0085C27.6984 32.1592 27.3738 32.2835 27.0404 32.3801C26.7073 32.4763 26.3662 32.5447 26.0213 32.5842C25.676 32.6238 25.3283 32.634 24.9816 32.6154C24.6353 32.6307 24.2881 32.6168 23.9442 32.574C23.6002 32.5316 23.2605 32.4601 22.9289 32.3601C22.5967 32.2606 22.2743 32.1331 21.9642 31.9797C21.6541 31.8262 21.3575 31.6467 21.0779 31.4435C20.9808 31.3644 20.8574 31.3239 20.7316 31.33C20.6059 31.336 20.4872 31.3886 20.398 31.4765C20.3094 31.5648 20.2563 31.6825 20.2502 31.8071C20.2441 31.9318 20.285 32.0541 20.3647 32.1503C20.6946 32.3968 21.045 32.6145 21.4124 32.8014C21.7798 32.9884 22.1631 33.1432 22.5573 33.2651C22.9514 33.3869 23.3554 33.4748 23.765 33.5283C24.1746 33.5813 24.5879 33.5994 25.0004 33.5827C25.4128 33.5994 25.8261 33.5813 26.2357 33.5283C27.0561 33.4213 27.8519 33.1755 28.5883 32.8014C28.9557 32.6145 29.3062 32.3968 29.636 32.1503L29.6238 32.2122ZM29.2794 29.0438C29.5337 29.0466 29.7861 28.9978 30.0212 28.901C30.2563 28.8038 30.4688 28.6606 30.6462 28.4797C30.8235 28.2988 30.9615 28.0839 31.0525 27.8481C31.1436 27.6126 31.1853 27.3612 31.175 27.1092C31.175 26.3567 30.7175 25.6787 30.0165 25.3904C29.3151 25.1025 28.5081 25.262 27.9713 25.794C27.4345 26.326 27.2736 27.1259 27.564 27.8212C27.8549 28.516 28.539 28.9694 29.2982 28.9694L29.2794 29.0438Z" fill="white"/>
</g>
<defs>
<clipPath id="clip0_1770_51344">
<rect width="50" height="50" rx="14" fill="white"/>
</clipPath>
</defs>
</svg>
