<svg width="24" height="24" viewBox="0 0 24 24" fill="none" xmlns="http://www.w3.org/2000/svg">
<rect width="24" height="24" rx="12" fill="#FFE7C7"/>
<path d="M14.8164 17.2017C18.129 15.1503 16.4402 10.2989 14.8797 8.95316C14.7483 8.83985 14.5666 8.94207 14.5629 9.11554C14.5469 9.85877 14.5183 9.98935 14.2296 10.701C14.2068 10.7571 14.1642 10.8031 14.1101 10.8302C13.9568 10.9068 13.7748 10.8093 13.769 10.638C13.7173 9.13249 14.4514 7.5908 11.7045 6.16701C11.5712 6.09795 11.4115 6.19666 11.386 6.34455C11.1377 7.78224 9.33367 9.55813 8.12537 11.3962C6.9431 13.1946 7.28652 15.8672 9.29963 17.2198C10.91 18.3018 13.167 18.2232 14.8164 17.2017Z" fill="url(#paint0_linear_1728_124034)"/>
<path fill-rule="evenodd" clip-rule="evenodd" d="M12.0127 17.5386C12.9995 17.5386 13.7995 16.6819 13.7995 15.6251C13.7995 14.4768 12.8355 13.636 12.3236 13.2705C12.1377 13.1377 11.8878 13.1377 11.7018 13.2705C11.19 13.636 10.226 14.4768 10.226 15.6251C10.226 16.6819 11.0259 17.5386 12.0127 17.5386Z" fill="url(#paint1_linear_1728_124034)"/>
<defs>
<linearGradient id="paint0_linear_1728_124034" x1="12.085" y1="5.86989" x2="12.085" y2="18.0618" gradientUnits="userSpaceOnUse">
<stop stop-color="#FB2563"/>
<stop offset="1" stop-color="#FB5D3B"/>
</linearGradient>
<linearGradient id="paint1_linear_1728_124034" x1="12.0127" y1="13.1709" x2="12.0127" y2="17.5386" gradientUnits="userSpaceOnUse">
<stop stop-color="#FF9E3C"/>
<stop offset="0.49" stop-color="#FFE500"/>
<stop offset="1" stop-color="#FFE500"/>
</linearGradient>
</defs>
</svg>
