<svg width="50" height="50" viewBox="0 0 50 50" fill="none" xmlns="http://www.w3.org/2000/svg">
<rect width="50.0001" height="50" rx="14" fill="#25D366"/>
<path d="M11.5385 38.4617L13.4309 31.548C12.2631 29.5243 11.6495 27.2302 11.6506 24.8778C11.654 17.5233 17.6388 11.5386 24.9921 11.5386C28.5606 11.5397 31.9102 12.9296 34.4298 15.4514C36.9482 17.9732 38.3348 21.3251 38.3336 24.8902C38.3303 32.2458 32.3455 38.2306 24.9921 38.2306C22.7598 38.2294 20.5599 37.6697 18.6114 36.6062L11.5385 38.4617ZM18.9389 34.191C20.8191 35.3072 22.6139 35.9758 24.9877 35.9769C31.0992 35.9769 36.0777 31.0028 36.0811 24.8879C36.0833 18.7607 31.1284 13.7934 24.9966 13.7911C18.8806 13.7911 13.9054 18.7652 13.9032 24.879C13.9021 27.375 14.6335 29.2439 15.8618 31.1992L14.7412 35.2915L18.9389 34.191ZM31.7128 28.0615C31.6298 27.9224 31.4077 27.8394 31.0734 27.6722C30.7402 27.5051 29.1013 26.6985 28.795 26.5875C28.4899 26.4764 28.2678 26.4203 28.0445 26.7546C27.8224 27.0878 27.183 27.8394 26.9889 28.0615C26.7949 28.2836 26.5997 28.3117 26.2665 28.1445C25.9333 27.9774 24.8586 27.6262 23.5854 26.4899C22.5949 25.6059 21.9252 24.5144 21.7311 24.1801C21.537 23.8469 21.7109 23.6663 21.8769 23.5003C22.0272 23.3511 22.2101 23.111 22.3772 22.9158C22.5466 22.7229 22.6016 22.5838 22.7138 22.3605C22.8248 22.1384 22.7699 21.9432 22.6857 21.7761C22.6016 21.61 21.9352 19.9689 21.6582 19.3014C21.3867 18.6519 21.1119 18.7394 20.9077 18.7293L20.2683 18.7181C20.0461 18.7181 19.6849 18.8011 19.3798 19.1354C19.0747 19.4697 18.2131 20.2751 18.2131 21.9163C18.2131 23.5575 19.4078 25.1426 19.5739 25.3647C19.741 25.5868 21.924 28.9544 25.2681 30.3982C26.0635 30.7415 26.6849 30.9467 27.1684 31.1004C27.9671 31.354 28.6941 31.3181 29.2684 31.2328C29.909 31.1375 31.2405 30.4262 31.5187 29.6477C31.7969 28.8681 31.7969 28.2006 31.7128 28.0615Z" fill="white"/>
</svg>
