<svg width="25" height="24" viewBox="0 0 25 24" fill="none" xmlns="http://www.w3.org/2000/svg">
<path fill-rule="evenodd" clip-rule="evenodd" d="M12.1128 2C8.21882 2 5.00887 5.05346 4.81441 8.94258L4.62452 12.7405L3.30378 15.382C3.17818 15.6332 3.11279 15.9101 3.11279 16.191C3.11279 17.1901 3.92272 18 4.92181 18H7.21281C7.67608 20.2822 9.69383 22 12.1128 22C14.5318 22 16.5495 20.2822 17.0128 18H19.3038C20.3029 18 21.1128 17.1901 21.1128 16.191C21.1128 15.9101 21.0474 15.6332 20.9218 15.382L19.6011 12.7405L19.4112 8.94258C19.2167 5.05346 16.0068 2 12.1128 2ZM12.1128 20C10.8066 20 9.69534 19.1652 9.2835 18H14.9421C14.5303 19.1652 13.419 20 12.1128 20Z" fill="#0B0C11"/>
</svg>
