<svg width="24" height="23" viewBox="0 0 24 23" fill="none" xmlns="http://www.w3.org/2000/svg">
<g filter="url(#filter0_dd_49_20688)">
<path d="M6.49967 6.5H8.64289C8.86579 6.5 9.07394 6.3886 9.19759 6.20313L10.1351 4.79687C10.2587 4.6114 10.4669 4.5 10.6898 4.5H13.3095C13.5325 4.5 13.7406 4.6114 13.8643 4.79687L14.8017 6.20313C14.9254 6.3886 15.1335 6.5 15.3565 6.5H17.4997C17.8679 6.5 18.1663 6.79848 18.1663 7.16667V14.8333C18.1663 15.2015 17.8679 15.5 17.4997 15.5H6.49967C6.13149 15.5 5.83301 15.2015 5.83301 14.8333V7.16667C5.83301 6.79848 6.13149 6.5 6.49967 6.5Z" stroke="white" stroke-linecap="square" stroke-linejoin="round"/>
<path d="M14.1663 10.6667C14.1663 11.8633 13.1963 12.8333 11.9997 12.8333C10.8031 12.8333 9.83301 11.8633 9.83301 10.6667C9.83301 9.47007 10.8031 8.5 11.9997 8.5C13.1963 8.5 14.1663 9.47007 14.1663 10.6667Z" stroke="white" stroke-linecap="square" stroke-linejoin="round"/>
</g>
<defs>
<filter id="filter0_dd_49_20688" x="-1.33333" y="-2" width="26.6667" height="26.6667" filterUnits="userSpaceOnUse" color-interpolation-filters="sRGB">
<feFlood flood-opacity="0" result="BackgroundImageFix"/>
<feColorMatrix in="SourceAlpha" type="matrix" values="0 0 0 0 0 0 0 0 0 0 0 0 0 0 0 0 0 0 127 0" result="hardAlpha"/>
<feOffset dy="1.33333"/>
<feGaussianBlur stdDeviation="2.66667"/>
<feComposite in2="hardAlpha" operator="out"/>
<feColorMatrix type="matrix" values="0 0 0 0 0 0 0 0 0 0 0 0 0 0 0 0 0 0 0.1 0"/>
<feBlend mode="normal" in2="BackgroundImageFix" result="effect1_dropShadow_49_20688"/>
<feColorMatrix in="SourceAlpha" type="matrix" values="0 0 0 0 0 0 0 0 0 0 0 0 0 0 0 0 0 0 127 0" result="hardAlpha"/>
<feOffset/>
<feGaussianBlur stdDeviation="1.33333"/>
<feComposite in2="hardAlpha" operator="out"/>
<feColorMatrix type="matrix" values="0 0 0 0 0 0 0 0 0 0 0 0 0 0 0 0 0 0 0.05 0"/>
<feBlend mode="normal" in2="effect1_dropShadow_49_20688" result="effect2_dropShadow_49_20688"/>
<feBlend mode="normal" in="SourceGraphic" in2="effect2_dropShadow_49_20688" result="shape"/>
</filter>
</defs>
</svg>
