<svg width="50" height="50" viewBox="0 0 50 50" fill="none" xmlns="http://www.w3.org/2000/svg">
<rect width="50" height="50" rx="14" fill="#F0F1F5"/>
<path fill-rule="evenodd" clip-rule="evenodd" d="M18.7905 21.7712C20.9809 19.5808 24.5323 19.5808 26.7227 21.7712L27.1077 22.1562C28.0235 23.0719 28.5573 24.2284 28.7069 25.422C28.7839 26.0368 28.348 26.5976 27.7332 26.6745C27.1185 26.7516 26.5577 26.3156 26.4807 25.7009C26.3909 24.9846 26.072 24.2934 25.5213 23.7427L25.1363 23.3577C23.8221 22.0434 21.6912 22.0434 20.377 23.3577L16.6266 27.1081C15.3124 28.4223 15.3124 30.5531 16.6266 31.8674L17.0116 32.2523C18.3258 33.5666 20.4567 33.5666 21.7709 32.2523L21.9634 32.0599C22.4014 31.6217 23.1117 31.6217 23.5498 32.0598C23.9879 32.4979 23.9879 33.2082 23.5498 33.6462L23.3575 33.8387C21.167 36.0292 17.6155 36.0293 15.4251 33.8387L15.0402 33.4539C12.8497 31.2634 12.8497 27.7121 15.0402 25.5215L18.7905 21.7712Z" fill="#0B0C11"/>
<path fill-rule="evenodd" clip-rule="evenodd" d="M26.6429 17.2839C28.8334 15.0935 32.3849 15.0935 34.5753 17.2839L34.9602 17.6689C37.1507 19.8593 37.1507 23.4107 34.9602 25.6012L31.2099 29.3515C29.0195 31.542 25.468 31.542 23.2776 29.3514L22.8927 28.9665C21.9769 28.0508 21.443 26.8944 21.2935 25.7008C21.2165 25.086 21.6524 24.5253 22.2671 24.4482C22.8819 24.3712 23.4427 24.8072 23.5196 25.4219C23.6094 26.1382 23.9283 26.8293 24.4791 27.3801L24.864 27.765C26.1783 29.0793 28.3091 29.0793 29.6234 27.765L33.3737 24.0147C34.688 22.7005 34.688 20.5696 33.3737 19.2553L32.9888 18.8704C31.6745 17.5562 29.5438 17.5561 28.2295 18.8703C28.2296 18.8703 28.2295 18.8703 28.2295 18.8703L28.0371 19.0628C27.5991 19.5009 26.8888 19.501 26.4507 19.063C26.0125 18.6249 26.0124 17.9147 26.4504 17.4765L26.6429 17.2839Z" fill="#0B0C11"/>
</svg>
