<svg width="25" height="24" viewBox="0 0 25 24" fill="none" xmlns="http://www.w3.org/2000/svg">
<path d="M6.48969 20.3144L5.74124 20.3627L6.48969 20.3144ZM19.1104 20.3144L19.8589 20.3627V20.3627L19.1104 20.3144ZM3.55005 5C3.13584 5 2.80005 5.33579 2.80005 5.75C2.80005 6.16421 3.13584 6.5 3.55005 6.5V5ZM22.05 6.5C22.4643 6.5 22.8 6.16421 22.8 5.75C22.8 5.33579 22.4643 5 22.05 5V6.5ZM11.3 10.75C11.3 10.3358 10.9643 10 10.55 10C10.1358 10 9.80005 10.3358 9.80005 10.75H11.3ZM9.80005 16.25C9.80005 16.6642 10.1358 17 10.55 17C10.9643 17 11.3 16.6642 11.3 16.25H9.80005ZM15.8 10.75C15.8 10.3358 15.4643 10 15.05 10C14.6358 10 14.3 10.3358 14.3 10.75H15.8ZM14.3 16.25C14.3 16.6642 14.6358 17 15.05 17C15.4643 17 15.8 16.6642 15.8 16.25H14.3ZM15.9477 5.93694C16.051 6.33808 16.4599 6.57957 16.861 6.47633C17.2621 6.37308 17.5036 5.9642 17.4004 5.56306L15.9477 5.93694ZM4.8016 5.79829L5.74124 20.3627L7.23813 20.2661L6.29849 5.70171L4.8016 5.79829ZM7.48761 22H18.1125V20.5H7.48761V22ZM19.8589 20.3627L20.7985 5.79829L19.3016 5.70171L18.362 20.2661L19.8589 20.3627ZM20.05 5H5.55005V6.5H20.05V5ZM3.55005 6.5H5.55005V5H3.55005V6.5ZM20.05 6.5H22.05V5H20.05V6.5ZM18.1125 22C19.0352 22 19.7994 21.2835 19.8589 20.3627L18.362 20.2661C18.3535 20.3976 18.2443 20.5 18.1125 20.5V22ZM5.74124 20.3627C5.80065 21.2835 6.56485 22 7.48761 22V20.5C7.35579 20.5 7.24662 20.3976 7.23813 20.2661L5.74124 20.3627ZM9.80005 10.75V16.25H11.3V10.75H9.80005ZM14.3 10.75V16.25H15.8V10.75H14.3ZM12.8001 3.5C14.3134 3.5 15.5869 4.53504 15.9477 5.93694L17.4004 5.56306C16.8731 3.51451 15.0144 2 12.8001 2V3.5ZM9.65241 5.93694C10.0132 4.53504 11.2867 3.5 12.8001 3.5V2C10.5857 2 8.72702 3.51451 8.19976 5.56306L9.65241 5.93694Z" fill="black"/>
</svg>
