<svg width="25" height="24" viewBox="0 0 25 24" fill="none" xmlns="http://www.w3.org/2000/svg">
<path d="M18.9642 6.69604L18.9633 6.70314" stroke="black" stroke-width="2.35714" stroke-linecap="round" stroke-linejoin="round"/>
<path d="M8.5657 7.59425C9.0651 7.58725 9.62017 7.58725 10.2406 7.58725C13.1868 7.58725 14.6599 7.58725 15.6926 8.33754C16.0261 8.57985 16.3194 8.87315 16.5617 9.20666C17.312 10.2393 17.312 11.7125 17.312 14.6587C17.312 15.4551 17.312 16.1439 17.2972 16.7454M8.5657 7.59425C6.69348 7.62052 5.60377 7.74524 4.78854 8.33754C4.45503 8.57985 4.16173 8.87315 3.91942 9.20666C3.16913 10.2393 3.16913 11.7125 3.16913 14.6587C3.16913 17.6049 3.16913 19.078 3.91941 20.1107C4.16173 20.4442 4.45503 20.7375 4.78854 20.9798C5.82123 21.7301 7.29434 21.7301 10.2406 21.7301C13.1868 21.7301 14.6599 21.7301 15.6926 20.9798C16.0261 20.7375 16.3194 20.4442 16.5617 20.1107C17.1092 19.3572 17.2572 18.3691 17.2972 16.7454M8.5657 7.59425C8.85356 5.31325 9.08332 4.08056 9.8496 3.25766C10.1305 2.95596 10.4572 2.70036 10.8176 2.50024C11.9336 1.88059 13.3959 2.05907 16.3204 2.41603C19.2449 2.77299 20.7071 2.95147 21.6413 3.82135C21.943 4.10229 22.1986 4.42896 22.3988 4.78937C23.0184 5.90536 22.8399 7.36762 22.4829 10.2921C22.126 13.2166 21.9475 14.6789 21.0776 15.6131C20.7967 15.9148 20.47 16.1704 20.1096 16.3705C19.4043 16.7621 18.5607 16.8349 17.2972 16.7454" stroke="black" stroke-width="1.5" stroke-linecap="round" stroke-linejoin="round"/>
<path d="M13.3836 11.5156V11.5228" stroke="black" stroke-width="2.35714" stroke-linecap="round" stroke-linejoin="round"/>
<path d="M7.09784 17.8015V17.8087" stroke="black" stroke-width="2.35714" stroke-linecap="round" stroke-linejoin="round"/>
<path d="M7.09784 11.5156V11.5228" stroke="black" stroke-width="2.35714" stroke-linecap="round" stroke-linejoin="round"/>
<path d="M13.3836 17.8015V17.8087" stroke="black" stroke-width="2.35714" stroke-linecap="round" stroke-linejoin="round"/>
</svg>
