<svg width="17" height="18" viewBox="0 0 17 18" fill="none" xmlns="http://www.w3.org/2000/svg">
<path d="M2.52515 11.3535C2.3195 11.5471 2.30969 11.8708 2.50325 12.0764C2.69681 12.2821 3.02043 12.2919 3.22609 12.0984L2.52515 11.3535ZM8.50062 11.7259L8.13905 12.0875C8.23492 12.1834 8.36501 12.2373 8.50062 12.2373C8.63624 12.2373 8.76633 12.1834 8.86219 12.0875L8.50062 11.7259ZM13.2527 14.4739C13.4524 14.6736 13.7761 14.6736 13.9758 14.4739C14.1755 14.2742 14.1755 13.9504 13.9758 13.7507L13.2527 14.4739ZM4.23926 3.88503H12.762V2.8623H4.23926V3.88503ZM13.6143 4.7373V13.26H14.637V4.7373H13.6143ZM12.762 14.1123H4.23926V15.135H12.762V14.1123ZM3.38699 13.26V4.7373H2.36426V13.26H3.38699ZM4.23926 14.1123C3.76856 14.1123 3.38699 13.7308 3.38699 13.26H2.36426C2.36426 14.2956 3.20373 15.135 4.23926 15.135V14.1123ZM13.6143 13.26C13.6143 13.7308 13.2327 14.1123 12.762 14.1123V15.135C13.7975 15.135 14.637 14.2956 14.637 13.26H13.6143ZM12.762 3.88503C13.2327 3.88503 13.6143 4.2666 13.6143 4.7373H14.637C14.637 3.70177 13.7975 2.8623 12.762 2.8623V3.88503ZM4.23926 2.8623C3.20373 2.8623 2.36426 3.70177 2.36426 4.7373H3.38699C3.38699 4.2666 3.76856 3.88503 4.23926 3.88503V2.8623ZM3.22609 12.0984L5.64214 9.82442L4.9412 9.07967L2.52515 11.3535L3.22609 12.0984ZM5.87949 9.82796L8.13905 12.0875L8.86219 11.3644L6.60267 9.10483L5.87949 9.82796ZM8.86219 12.0875L9.74371 11.206L9.02058 10.4829L8.13905 11.3644L8.86219 12.0875ZM9.9848 11.206L13.2527 14.4739L13.9758 13.7507L10.7079 10.4829L9.9848 11.206ZM9.74371 11.206C9.81033 11.1394 9.91819 11.1394 9.9848 11.206L10.7079 10.4829C10.242 10.0169 9.48653 10.0169 9.02058 10.4829L9.74371 11.206ZM5.64214 9.82442C5.70922 9.76128 5.81435 9.76285 5.87949 9.82796L6.60267 9.10483C6.14665 8.64876 5.41081 8.63765 4.9412 9.07967L5.64214 9.82442ZM10.5461 6.95321C10.5461 7.23563 10.3171 7.46458 10.0347 7.46458V8.4873C10.8819 8.4873 11.5688 7.80044 11.5688 6.95321H10.5461ZM10.0347 7.46458C9.7523 7.46458 9.52335 7.23563 9.52335 6.95321H8.50062C8.50062 7.80044 9.18749 8.4873 10.0347 8.4873V7.46458ZM9.52335 6.95321C9.52335 6.6708 9.7523 6.44185 10.0347 6.44185V5.41912C9.18749 5.41912 8.50062 6.10596 8.50062 6.95321H9.52335ZM10.0347 6.44185C10.3171 6.44185 10.5461 6.6708 10.5461 6.95321H11.5688C11.5688 6.10596 10.8819 5.41912 10.0347 5.41912V6.44185Z" fill="white"/>
</svg>
