<svg width="50" height="50" viewBox="0 0 50 50" fill="none" xmlns="http://www.w3.org/2000/svg">
<rect width="50" height="50" rx="14" fill="url(#paint0_linear_1770_35501)"/>
<g clip-path="url(#clip0_1770_35501)">
<path d="M25 13.9627C28.5967 13.9627 29.0227 13.9785 30.4372 14.0416C31.7518 14.0994 32.4617 14.3203 32.9349 14.5043C33.5607 14.7462 34.0129 15.0407 34.4809 15.5087C34.9542 15.9819 35.2434 16.4289 35.4853 17.0546C35.6693 17.5279 35.8902 18.2431 35.948 19.5524C36.0111 20.9722 36.0269 21.3981 36.0269 24.9896C36.0269 28.5864 36.0111 29.0123 35.948 30.4268C35.8902 31.7414 35.6693 32.4513 35.4853 32.9245C35.2434 33.5503 34.9489 34.0025 34.4809 34.4705C34.0077 34.9438 33.5607 35.233 32.9349 35.4749C32.4617 35.6589 31.7465 35.8798 30.4372 35.9376C29.0174 36.0007 28.5915 36.0165 25 36.0165C21.4032 36.0165 20.9773 36.0007 19.5628 35.9376C18.2482 35.8798 17.5383 35.6589 17.065 35.4749C16.4393 35.233 15.9871 34.9385 15.5191 34.4705C15.0458 33.9973 14.7566 33.5503 14.5147 32.9245C14.3307 32.4513 14.1098 31.7361 14.052 30.4268C13.9889 29.007 13.9731 28.5811 13.9731 24.9896C13.9731 21.3928 13.9889 20.9669 14.052 19.5524C14.1098 18.2378 14.3307 17.5279 14.5147 17.0546C14.7566 16.4289 15.0511 15.9767 15.5191 15.5087C15.9923 15.0354 16.4393 14.7462 17.065 14.5043C17.5383 14.3203 18.2534 14.0994 19.5628 14.0416C20.9773 13.9785 21.4032 13.9627 25 13.9627ZM25 11.5386C21.3454 11.5386 20.8879 11.5543 19.4524 11.6175C18.0221 11.6806 17.0388 11.9119 16.1869 12.2432C15.2982 12.5903 14.5463 13.0477 13.7996 13.7997C13.0476 14.5464 12.5901 15.2983 12.2431 16.1818C11.9118 17.0389 11.6804 18.0169 11.6173 19.4472C11.5542 20.888 11.5385 21.3455 11.5385 25.0001C11.5385 28.6547 11.5542 29.1122 11.6173 30.5477C11.6804 31.978 11.9118 32.9614 12.2431 33.8132C12.5901 34.7019 13.0476 35.4538 13.7996 36.2005C14.5463 36.9472 15.2982 37.41 16.1816 37.7518C17.0388 38.083 18.0168 38.3144 19.4471 38.3775C20.8827 38.4406 21.3401 38.4564 24.9947 38.4564C28.6493 38.4564 29.1068 38.4406 30.5424 38.3775C31.9726 38.3144 32.956 38.083 33.8078 37.7518C34.6912 37.41 35.4432 36.9472 36.1899 36.2005C36.9366 35.4538 37.3993 34.7019 37.7411 33.8185C38.0724 32.9614 38.3038 31.9833 38.3669 30.553C38.43 29.1175 38.4458 28.66 38.4458 25.0054C38.4458 21.3508 38.43 20.8933 38.3669 19.4577C38.3038 18.0275 38.0724 17.0441 37.7411 16.1923C37.4098 15.2983 36.9524 14.5464 36.2004 13.7997C35.4537 13.053 34.7018 12.5903 33.8184 12.2485C32.9612 11.9172 31.9832 11.6858 30.5529 11.6227C29.1121 11.5543 28.6546 11.5386 25 11.5386Z" fill="white"/>
<path d="M25 18.0852C21.1824 18.0852 18.0852 21.1824 18.0852 25C18.0852 28.8176 21.1824 31.9148 25 31.9148C28.8176 31.9148 31.9148 28.8176 31.9148 25C31.9148 21.1824 28.8176 18.0852 25 18.0852ZM25 29.4854C22.5233 29.4854 20.5146 27.4767 20.5146 25C20.5146 22.5233 22.5233 20.5146 25 20.5146C27.4767 20.5146 29.4854 22.5233 29.4854 25C29.4854 27.4767 27.4767 29.4854 25 29.4854Z" fill="white"/>
<path d="M33.8026 17.8116C33.8026 18.7055 33.077 19.4259 32.1883 19.4259C31.2944 19.4259 30.574 18.7003 30.574 17.8116C30.574 16.9177 31.2996 16.1973 32.1883 16.1973C33.077 16.1973 33.8026 16.9229 33.8026 17.8116Z" fill="white"/>
</g>
<defs>
<linearGradient id="paint0_linear_1770_35501" x1="49.039" y1="50" x2="-0.960998" y2="-1.34586e-06" gradientUnits="userSpaceOnUse">
<stop stop-color="#FBE18A"/>
<stop offset="0.21" stop-color="#FCBB45"/>
<stop offset="0.38" stop-color="#F75274"/>
<stop offset="0.52" stop-color="#D53692"/>
<stop offset="0.74" stop-color="#8F39CE"/>
<stop offset="1" stop-color="#5B4FE9"/>
</linearGradient>
<clipPath id="clip0_1770_35501">
<rect width="26.9231" height="26.9231" fill="white" transform="translate(11.5385 11.5386)"/>
</clipPath>
</defs>
</svg>
