<svg width="50" height="50" viewBox="0 0 50 50" fill="none" xmlns="http://www.w3.org/2000/svg">
<rect width="50" height="50" rx="14" fill="url(#paint0_linear_1770_35498)"/>
<g clip-path="url(#clip0_1770_35498)">
<path fill-rule="evenodd" clip-rule="evenodd" d="M25 12.6625C25 12.0416 25.5042 11.5334 26.123 11.5852C28.6176 11.794 31.0128 12.6953 33.0334 14.1981C35.3557 15.9252 37.0595 18.3547 37.8922 21.1264C38.725 23.8981 38.6423 26.8644 37.6564 29.5854C36.7986 31.9529 35.2968 34.0251 33.3303 35.5742C32.8426 35.9585 32.1418 35.8123 31.7996 35.2942C31.4574 34.7761 31.6042 34.0829 32.0855 33.6906C33.6516 32.4138 34.8494 30.7324 35.5425 28.8195C36.3636 26.5529 36.4325 24.0821 35.7389 21.7734C35.0452 19.4646 33.626 17.4409 31.6916 16.0023C30.059 14.7881 28.1329 14.0453 26.1224 13.843C25.5046 13.7809 25 13.2834 25 12.6625ZM30.0017 36.2782C30.2534 36.8457 29.9985 37.5147 29.4119 37.7182C27.8977 38.2435 26.2989 38.4952 24.6906 38.4582C23.0823 38.4212 21.4968 38.0964 20.0083 37.5021C19.4317 37.2718 19.2078 36.5919 19.4854 36.0364C19.7629 35.481 20.4366 35.2615 21.0171 35.4821C22.2058 35.9338 23.4655 36.181 24.7423 36.2103C26.0191 36.2397 27.2888 36.0506 28.4971 35.654C29.087 35.4604 29.7499 35.7106 30.0017 36.2782ZM16.6778 35.5802C17.1658 35.9641 17.8665 35.8174 18.2083 35.2991C18.5501 34.7807 18.4027 34.0876 17.9212 33.6956C16.8628 32.834 15.9704 31.7863 15.2882 30.6042C14.9778 30.0665 14.317 29.8107 13.7509 30.0656C13.1848 30.3206 12.9284 30.989 13.2297 31.5319C14.0984 33.0971 15.2707 34.4736 16.6778 35.5802ZM13.1973 28.5927C12.6033 28.7735 11.9703 28.4391 11.8397 27.8321C11.4628 26.0805 11.4393 24.2711 11.7707 22.5103C11.8856 21.9001 12.5097 21.5495 13.1082 21.7148C13.7066 21.8801 14.0518 22.499 13.9472 23.111C13.717 24.4576 13.7349 25.835 13.9999 27.1752C14.1203 27.7843 13.7913 28.4119 13.1973 28.5927ZM13.0354 18.8305C12.7508 19.3824 13.0275 20.0426 13.6012 20.2802C14.1748 20.5177 14.8275 20.2418 15.1213 19.6948C15.6441 18.7211 16.3081 17.83 17.0916 17.0506C17.5317 16.6127 17.6095 15.9084 17.2178 15.4266C16.8262 14.9448 16.1143 14.8685 15.6669 15.299C14.6018 16.3237 13.7127 17.5169 13.0354 18.8305ZM25 18.9903C25.6638 18.9903 26.2019 19.5284 26.2019 20.1922V23.798H29.8077C30.4715 23.798 31.0096 24.3361 31.0096 24.9999C31.0096 25.6637 30.4715 26.2018 29.8077 26.2018H26.2019V29.8076C26.2019 30.4714 25.6638 31.0095 25 31.0095C24.3362 31.0095 23.7981 30.4714 23.7981 29.8076V26.2018H20.1923C19.5285 26.2018 18.9904 25.6637 18.9904 24.9999C18.9904 24.3361 19.5285 23.798 20.1923 23.798H23.7981V20.1922C23.7981 19.5284 24.3362 18.9903 25 18.9903Z" fill="white"/>
</g>
<defs>
<linearGradient id="paint0_linear_1770_35498" x1="49.039" y1="50" x2="-0.960998" y2="-1.34586e-06" gradientUnits="userSpaceOnUse">
<stop stop-color="#FBE18A"/>
<stop offset="0.21" stop-color="#FCBB45"/>
<stop offset="0.38" stop-color="#F75274"/>
<stop offset="0.52" stop-color="#D53692"/>
<stop offset="0.74" stop-color="#8F39CE"/>
<stop offset="1" stop-color="#5B4FE9"/>
</linearGradient>
<clipPath id="clip0_1770_35498">
<rect width="26.9231" height="26.9231" fill="white" transform="translate(11.5385 11.5386)"/>
</clipPath>
</defs>
</svg>
