<svg width="50" height="50" viewBox="0 0 50 50" fill="none" xmlns="http://www.w3.org/2000/svg">
<g clip-path="url(#clip0_1770_51378)">
<rect width="50" height="50" rx="14" fill="#0A66C2"/>
<rect width="50" height="50" rx="12.5" fill="#0A66C2"/>
<path fill-rule="evenodd" clip-rule="evenodd" d="M13.5187 11.5C12.4042 11.5 11.5001 12.3766 11.5001 13.4565V36.8567C11.5001 37.9367 12.4043 38.8125 13.5187 38.8125H36.7941C37.909 38.8125 38.8126 37.9366 38.8126 36.8563V13.4565C38.8126 12.3766 37.909 11.5 36.7941 11.5H13.5187ZM19.7999 22.0609V34.357H15.7128V22.0609H19.7999ZM20.0693 18.2581C20.0693 19.4381 19.1822 20.3823 17.7572 20.3823L17.7305 20.3822C16.3587 20.3822 15.4719 19.438 15.4719 18.258C15.4719 17.0513 16.3855 16.1334 17.7843 16.1334C19.1822 16.1334 20.0426 17.0513 20.0693 18.2581ZM26.1489 34.357H22.0622C22.0622 34.357 22.1157 23.2148 22.0624 22.0613H26.1492V23.8018C26.6925 22.9641 27.6648 21.7726 29.8327 21.7726C32.5216 21.7726 34.5376 23.5301 34.5376 27.3068V34.357H30.4509V27.7796C30.4509 26.1265 29.8591 24.999 28.3806 24.999C27.2513 24.999 26.5788 25.7594 26.2835 26.4939C26.1756 26.756 26.1489 27.124 26.1489 27.491V34.357Z" fill="white"/>
</g>
<defs>
<clipPath id="clip0_1770_51378">
<rect width="50" height="50" rx="14" fill="white"/>
</clipPath>
</defs>
</svg>
