<svg width="25" height="24" viewBox="0 0 25 24" fill="none" xmlns="http://www.w3.org/2000/svg">
<path d="M20.45 3H5.15005C4.79201 3 4.44863 3.14223 4.19546 3.39541C3.94228 3.64858 3.80005 3.99196 3.80005 4.35V19.65C3.80005 20.008 3.94228 20.3514 4.19546 20.6046C4.44863 20.8578 4.79201 21 5.15005 21H20.45C20.808 21 21.1514 20.8578 21.4046 20.6046C21.6579 20.3514 21.8 20.008 21.8 19.65V4.35C21.8 3.99196 21.6579 3.64858 21.4046 3.39541C21.1514 3.14223 20.808 3 20.45 3ZM9.20005 18.3H6.50005V10.2H9.20005V18.3ZM7.85005 8.625C7.54061 8.61616 7.24065 8.51632 6.98763 8.33797C6.73461 8.15962 6.53975 7.91066 6.42742 7.6222C6.31508 7.33374 6.29024 7.01857 6.356 6.71607C6.42175 6.41358 6.5752 6.13716 6.79715 5.92138C7.01911 5.70559 7.29973 5.55999 7.60396 5.50278C7.90819 5.44556 8.22253 5.47927 8.50771 5.59969C8.79289 5.7201 9.03627 5.92189 9.20742 6.17983C9.37858 6.43778 9.46992 6.74044 9.47005 7.05C9.46294 7.47331 9.28855 7.8766 8.985 8.17173C8.68144 8.46685 8.2734 8.62982 7.85005 8.625ZM19.1 18.3H16.4V14.034C16.4 12.756 15.86 12.297 15.158 12.297C14.9522 12.3107 14.7511 12.3649 14.5663 12.4566C14.3815 12.5482 14.2166 12.6755 14.0811 12.831C13.9457 12.9866 13.8422 13.1674 13.7768 13.363C13.7114 13.5586 13.6853 13.7652 13.7 13.971C13.6955 14.0129 13.6955 14.0551 13.7 14.097V18.3H11V10.2H13.61V11.37C13.8733 10.9695 14.235 10.6433 14.6605 10.4227C15.086 10.2021 15.561 10.0944 16.04 10.11C17.435 10.11 19.064 10.884 19.064 13.404L19.1 18.3Z" fill="black"/>
</svg>
