<svg width="25" height="24" viewBox="0 0 25 24" fill="none" xmlns="http://www.w3.org/2000/svg">
<path d="M15.55 10C15.55 11.5188 14.3188 12.75 12.8 12.75C11.2812 12.75 10.05 11.5188 10.05 10C10.05 8.48122 11.2812 7.25 12.8 7.25C14.3188 7.25 15.55 8.48122 15.55 10Z" stroke="black" stroke-width="1.5" stroke-linejoin="round"/>
<path d="M20.05 10C20.05 14.5547 15.9753 18.6833 13.9354 20.4648C13.2778 21.0392 12.3222 21.0392 11.6646 20.4648C9.62476 18.6833 5.55005 14.5547 5.55005 10C5.55005 5.99594 8.79599 2.75 12.8 2.75C16.8041 2.75 20.05 5.99594 20.05 10Z" stroke="black" stroke-width="1.5" stroke-linejoin="round"/>
</svg>
