<svg width="50" height="50" viewBox="0 0 50 50" fill="none" xmlns="http://www.w3.org/2000/svg">
<rect width="50" height="50" rx="14" fill="#FDF251"/>
<path d="M36.5513 31.3716C32.3821 29.3528 31.7176 26.2358 31.6881 26.0046C31.6523 25.7245 31.6117 25.5043 31.9206 25.2195C32.2184 24.9443 33.5398 24.1261 33.9065 23.8702C34.5125 23.4463 34.7794 23.0231 34.5826 22.5029C34.4451 22.1431 34.1101 22.0075 33.7572 22.0075C33.6459 22.0079 33.5349 22.0203 33.4263 22.0447C32.7605 22.1892 32.1139 22.5229 31.7397 22.613C31.6947 22.6246 31.6485 22.6309 31.6021 22.6316C31.4026 22.6316 31.3269 22.5428 31.3462 22.3027C31.393 21.5747 31.492 20.1538 31.3771 18.8265C31.2196 17.0004 30.6308 16.0955 29.9326 15.2953C29.5949 14.9072 28.0265 13.24 24.9999 13.24C21.9732 13.24 20.4069 14.9072 20.0712 15.2905C19.371 16.0907 18.7828 16.9955 18.6267 18.8217C18.5118 20.149 18.615 21.5692 18.6576 22.2979C18.6714 22.5263 18.6012 22.6268 18.4018 22.6268C18.3553 22.626 18.3092 22.6198 18.2642 22.6082C17.8907 22.5181 17.2441 22.1844 16.5782 22.0399C16.4696 22.0155 16.3586 22.003 16.2473 22.0027C15.8931 22.0027 15.5595 22.1403 15.4219 22.4981C15.2251 23.0183 15.4907 23.4415 16.0987 23.8653C16.4654 24.1213 17.7868 24.9387 18.0846 25.2147C18.3928 25.4995 18.3529 25.7197 18.3171 25.9998C18.2876 26.2344 17.6224 29.3514 13.4539 31.3668C13.2097 31.4852 12.7942 31.7356 13.5268 32.1402C14.6769 32.776 15.4425 32.7079 16.0375 33.0911C16.5424 33.4166 16.2439 34.1184 16.6112 34.3716C17.0625 34.6833 18.3963 34.3496 20.1194 34.9187C21.5639 35.3948 22.4416 36.74 25.0033 36.74C27.5649 36.74 28.4681 35.3886 29.8872 34.9187C31.6069 34.3496 32.9434 34.6833 33.3954 34.3716C33.762 34.1184 33.4642 33.4166 33.9691 33.0911C34.5641 32.7079 35.329 32.776 36.4798 32.1402C37.211 31.7404 36.7955 31.49 36.5513 31.3716Z" fill="white"/>
<path d="M38.3653 31.1344C38.1782 30.6252 37.8219 30.3527 37.416 30.127C37.3397 30.0823 37.2695 30.0465 37.2096 30.019C37.0886 29.9564 36.9648 29.8958 36.8416 29.8318C35.5766 29.161 34.5888 28.3146 33.9037 27.3114C33.7092 27.029 33.5404 26.7296 33.3995 26.4169C33.341 26.2497 33.3438 26.1547 33.3857 26.068C33.4274 26.0012 33.4824 25.9438 33.5474 25.8995C33.7648 25.7556 33.989 25.6098 34.141 25.5114C34.4121 25.3359 34.6267 25.1969 34.7649 25.0985C35.2843 24.7352 35.6475 24.3492 35.8745 23.9178C36.0329 23.6197 36.1252 23.291 36.1453 22.9541C36.1653 22.6171 36.1126 22.2798 35.9907 21.965C35.6468 21.0595 34.7918 20.4973 33.7558 20.4973C33.5373 20.4971 33.3194 20.5202 33.1058 20.5661C33.0487 20.5785 32.9916 20.5916 32.9359 20.606C32.9455 19.9868 32.9317 19.3331 32.8767 18.6897C32.6814 16.428 31.8896 15.2425 31.0642 14.297C30.5356 13.7046 29.9129 13.2034 29.2213 12.8135C27.9687 12.0979 26.5483 11.7346 24.9999 11.7346C23.4514 11.7346 22.0379 12.0979 20.7839 12.8135C20.0906 13.2035 19.4667 13.7057 18.9376 14.2998C18.1122 15.2452 17.3204 16.4328 17.1251 18.6925C17.07 19.3359 17.0563 19.993 17.0652 20.6088C17.0095 20.5944 16.9531 20.5813 16.896 20.5689C16.6824 20.5229 16.4645 20.4999 16.246 20.5001C15.2093 20.5001 14.3529 21.0622 14.0104 21.9678C13.8879 22.2827 13.8347 22.6202 13.8543 22.9575C13.8738 23.2949 13.9658 23.624 14.1239 23.9226C14.3515 24.354 14.7147 24.74 15.2341 25.1033C15.3717 25.1997 15.587 25.3387 15.858 25.5162C16.0045 25.6112 16.2184 25.7501 16.4282 25.8891C16.5016 25.9366 16.564 25.9993 16.6112 26.0729C16.6552 26.163 16.6566 26.26 16.5913 26.4389C16.4523 26.745 16.2863 27.0382 16.0953 27.3148C15.4253 28.2954 14.4664 29.1266 13.242 29.7919C12.5933 30.136 11.9192 30.3658 11.6344 31.1399C11.4198 31.7241 11.5601 32.3887 12.1056 32.9488C12.3058 33.1579 12.538 33.3337 12.7935 33.4697C13.3251 33.7619 13.8903 33.9882 14.4767 34.1434C14.5977 34.1746 14.7126 34.226 14.8165 34.2954C15.0153 34.4695 14.9871 34.7317 15.252 35.1156C15.3849 35.314 15.5538 35.4858 15.75 35.622C16.3058 36.006 16.9304 36.0301 17.5921 36.0555C18.1899 36.0782 18.8674 36.1044 19.6413 36.3597C19.9619 36.4656 20.2948 36.6707 20.6807 36.9101C21.6073 37.4799 22.8757 38.2595 24.9985 38.2595C27.1213 38.2595 28.3986 37.4757 29.3321 36.9039C29.7152 36.6686 30.0461 36.4656 30.3577 36.3624C31.1316 36.1065 31.8091 36.081 32.4069 36.0583C33.0686 36.0328 33.6932 36.0087 34.249 35.6248C34.4813 35.4628 34.6749 35.2513 34.8158 35.0055C35.0064 34.6814 35.0016 34.4551 35.1804 34.2968C35.2779 34.2307 35.3858 34.1814 35.4996 34.1509C36.094 33.9953 36.6669 33.7669 37.2055 33.4711C37.477 33.3254 37.7213 33.1341 37.9278 32.9055L37.9347 32.8972C38.4464 32.3495 38.5751 31.7041 38.3653 31.1344ZM36.4784 32.1486C35.3276 32.7844 34.5627 32.7163 33.9677 33.0995C33.4621 33.425 33.7613 34.1268 33.394 34.3801C32.9428 34.6918 31.609 34.358 29.8858 34.9271C28.4647 35.397 27.5581 36.7484 25.0019 36.7484C22.4458 36.7484 21.5605 35.3998 20.1159 34.9236C18.3962 34.3546 17.0597 34.6883 16.6078 34.3766C16.2411 34.1234 16.539 33.4216 16.0341 33.0961C15.4384 32.7128 14.6735 32.781 13.5233 32.1486C12.7908 31.744 13.2062 31.4936 13.4504 31.3752C17.619 29.3564 18.2841 26.2394 18.3137 26.0082C18.3495 25.7281 18.3894 25.5079 18.0812 25.2231C17.7834 24.9478 16.4619 24.1297 16.0953 23.8737C15.4886 23.4499 15.2217 23.0267 15.4184 22.5065C15.556 22.1467 15.8917 22.0111 16.2439 22.0111C16.3552 22.0115 16.4661 22.0239 16.5748 22.0483C17.2406 22.1928 17.8872 22.5265 18.2607 22.6166C18.3057 22.6282 18.3519 22.6344 18.3983 22.6352C18.5978 22.6352 18.668 22.5347 18.6542 22.3063C18.6116 21.5776 18.5084 20.1574 18.6232 18.8301C18.7808 17.0039 19.3689 16.0991 20.0678 15.2989C20.4035 14.9142 21.9808 13.247 24.9971 13.247C28.0134 13.247 29.5949 14.9074 29.9305 15.2906C30.6301 16.0909 31.2189 16.9957 31.3751 18.8219C31.49 20.1492 31.3909 21.57 31.3441 22.298C31.3283 22.5382 31.4005 22.6269 31.6 22.6269C31.6465 22.6262 31.6926 22.62 31.7376 22.6084C32.1118 22.5182 32.7584 22.1845 33.4243 22.04C33.5329 22.0157 33.6438 22.0032 33.7551 22.0029C34.1094 22.0029 34.443 22.1405 34.5806 22.4983C34.7773 23.0185 34.5118 23.4416 33.9044 23.8655C33.5378 24.1215 32.2164 24.9389 31.9185 25.2148C31.6097 25.4997 31.6502 25.7199 31.686 25.9999C31.7156 26.2346 32.3801 29.3516 36.5493 31.367C36.7955 31.4901 37.211 31.7406 36.4784 32.1486Z" fill="black"/>
</svg>
