<svg width="24" height="24" viewBox="0 0 24 24" fill="none" xmlns="http://www.w3.org/2000/svg">
<rect width="24" height="24" rx="12" fill="#F0C402" fill-opacity="0.2"/>
<path d="M14.55 9.5C14.55 9.15483 14.2814 8.875 13.95 8.875C13.6186 8.875 13.35 9.15483 13.35 9.5C13.35 10.9428 13.0435 11.839 12.5195 12.3849C11.9955 12.9308 11.1351 13.25 9.75002 13.25C9.41866 13.25 9.15002 13.5298 9.15002 13.875C9.15002 14.2202 9.41866 14.5 9.75002 14.5C11.1351 14.5 11.9955 14.8193 12.5195 15.3651C13.0435 15.911 13.35 16.8072 13.35 18.25C13.35 18.5952 13.6186 18.875 13.95 18.875C14.2814 18.875 14.55 18.5952 14.55 18.25C14.55 16.8072 14.8565 15.911 15.3805 15.3651C15.9046 14.8193 16.7649 14.5 18.15 14.5C18.4814 14.5 18.75 14.2202 18.75 13.875C18.75 13.5298 18.4814 13.25 18.15 13.25C16.7649 13.25 15.9046 12.9308 15.3805 12.3849C14.8565 11.839 14.55 10.9428 14.55 9.5Z" fill="#F0C402"/>
<path d="M9.45005 5.75C9.45005 5.40482 9.18142 5.125 8.85005 5.125C8.51868 5.125 8.25005 5.40482 8.25005 5.75C8.25005 6.65027 8.05814 7.15586 7.77891 7.44673C7.49968 7.7376 7.01431 7.9375 6.15005 7.9375C5.81868 7.9375 5.55005 8.21732 5.55005 8.5625C5.55005 8.90768 5.81868 9.1875 6.15005 9.1875C7.01431 9.1875 7.49968 9.3874 7.77891 9.67827C8.05814 9.96914 8.25005 10.4747 8.25005 11.375C8.25005 11.7202 8.51868 12 8.85005 12C9.18142 12 9.45005 11.7202 9.45005 11.375C9.45005 10.4747 9.64195 9.96914 9.92119 9.67827C10.2004 9.3874 10.6858 9.1875 11.55 9.1875C11.8814 9.1875 12.15 8.90768 12.15 8.5625C12.15 8.21732 11.8814 7.9375 11.55 7.9375C10.6858 7.9375 10.2004 7.7376 9.92119 7.44673C9.64195 7.15586 9.45005 6.65027 9.45005 5.75Z" fill="#F0C402"/>
</svg>
