<svg width="25" height="25" viewBox="0 0 25 25" fill="none" xmlns="http://www.w3.org/2000/svg">
<path fill-rule="evenodd" clip-rule="evenodd" d="M17.7636 7.30832C20.3879 9.33294 22.8841 17.6622 16.9259 21.1177C14.1064 22.7529 10.3452 22.9204 7.63978 21.1027C4.25775 18.8304 3.6808 14.3404 5.66702 11.319C6.34142 10.2931 7.12628 9.27872 7.88906 8.29289C9.30112 6.46794 10.6375 4.74075 11.0575 3.21923C11.1717 2.8056 11.6492 2.52887 12.0144 2.75412C14.9597 4.57067 14.8379 6.51366 14.7193 8.40612C14.6827 8.9908 14.6463 9.57065 14.7008 10.1405C14.7358 10.5059 15.0601 10.7584 15.4272 10.7584C15.6918 10.7584 15.9409 10.6263 16.0817 10.4022C16.7083 9.40511 16.8797 8.84259 17.1396 7.98998C17.1886 7.8291 17.2408 7.6579 17.2998 7.47149C17.3636 7.26975 17.5961 7.17907 17.7636 7.30832ZM14.9514 17.9314C14.9514 19.4557 13.7425 20.6913 12.2514 20.6913C10.7602 20.6913 9.55136 19.4557 9.55136 17.9314C9.55136 16.275 11.0081 15.0622 11.7815 14.535C12.0625 14.3435 12.4402 14.3435 12.7212 14.535C13.4946 15.0622 14.9514 16.275 14.9514 17.9314Z" fill="black"/>
</svg>
