<svg width="25" height="24" viewBox="0 0 25 24" fill="none" xmlns="http://www.w3.org/2000/svg">
<path d="M16.8001 17C16.8001 19.2091 15.0092 21 12.8 21C10.5909 21 8.80005 19.2091 8.80005 17M19.0997 8.99251L19.2896 12.7904C19.2965 12.9286 19.332 13.0639 19.3939 13.1877L20.7146 15.8292C20.7708 15.9415 20.8001 16.0654 20.8001 16.191C20.8001 16.6378 20.4378 17 19.991 17H5.60907C5.16226 17 4.80005 16.6378 4.80005 16.191C4.80005 16.0654 4.82929 15.9415 4.88546 15.8292L6.2062 13.1877C6.26809 13.0639 6.30362 12.9286 6.31053 12.7904L6.50042 8.99251C6.66827 5.63561 9.43895 3 12.8 3C16.1612 3 18.9318 5.63561 19.0997 8.99251Z" stroke="black" stroke-width="1.5" stroke-linejoin="round"/>
</svg>
