<svg width="24" height="24" viewBox="0 0 24 24" fill="none" xmlns="http://www.w3.org/2000/svg">
<rect width="24" height="24" rx="12" fill="#5DC215" fill-opacity="0.2"/>
<path d="M11.9994 5.75C10.4461 5.75 9.18689 7.0092 9.18689 8.5625C9.18689 10.1158 10.4461 11.375 11.9994 11.375C13.5527 11.375 14.8119 10.1158 14.8119 8.5625C14.8119 7.0092 13.5527 5.75 11.9994 5.75Z" fill="#5DC215"/>
<path d="M12.0008 12.3125C9.67468 12.3125 7.89795 13.7036 7.17515 15.6579C6.98363 16.1758 7.11382 16.6846 7.41942 17.0487C7.71856 17.4052 8.18311 17.625 8.68627 17.625H15.3153C15.8184 17.625 16.2829 17.4052 16.5821 17.0487C16.8877 16.6846 17.0179 16.1758 16.8263 15.6579C16.1036 13.7036 14.3268 12.3125 12.0008 12.3125Z" fill="#5DC215"/>
</svg>
