<svg width="25" height="24" viewBox="0 0 25 24" fill="none" xmlns="http://www.w3.org/2000/svg">
<path fill-rule="evenodd" clip-rule="evenodd" d="M19.8 3.75C19.1097 3.75 18.55 4.30964 18.55 5C18.55 5.69036 19.1097 6.25 19.8 6.25C20.4904 6.25 21.05 5.69036 21.05 5C21.05 4.30964 20.4904 3.75 19.8 3.75ZM17.05 5C17.05 3.48122 18.2813 2.25 19.8 2.25C21.3188 2.25 22.55 3.48122 22.55 5C22.55 6.51878 21.3188 7.75 19.8 7.75C19.3132 7.75 18.8559 7.62348 18.4592 7.40152L16.9288 8.93196C17.3214 9.52478 17.55 10.2357 17.55 11C17.55 11.7643 17.3214 12.4752 16.9288 13.068L18.4592 14.5985C18.8559 14.3765 19.3132 14.25 19.8 14.25C21.3188 14.25 22.55 15.4812 22.55 17C22.55 18.5188 21.3188 19.75 19.8 19.75C18.2813 19.75 17.05 18.5188 17.05 17C17.05 16.5131 17.1766 16.0558 17.3985 15.6591L15.8681 14.1287C15.516 14.3619 15.1222 14.5373 14.7004 14.6412L14.7336 17.4125C15.7929 17.7948 16.55 18.809 16.55 20C16.55 21.5188 15.3188 22.75 13.8 22.75C12.2813 22.75 11.05 21.5188 11.05 20C11.05 18.6759 11.9859 17.5703 13.2323 17.3087L13.201 14.7024C12.6455 14.6132 12.1307 14.402 11.6851 14.0971L9.04322 16.4088C9.36239 16.8579 9.55005 17.4071 9.55005 18C9.55005 19.5188 8.31883 20.75 6.80005 20.75C5.28127 20.75 4.05005 19.5188 4.05005 18C4.05005 16.4812 5.28127 15.25 6.80005 15.25C7.17253 15.25 7.52771 15.3241 7.85168 15.4582L10.6394 13.019C10.2663 12.4362 10.05 11.7433 10.05 11C10.05 10.2814 10.2522 9.60995 10.6027 9.0395L8.29488 7.30863C7.86455 7.58784 7.35124 7.75 6.80005 7.75C5.28127 7.75 4.05005 6.51878 4.05005 5C4.05005 3.48122 5.28127 2.25 6.80005 2.25C8.31883 2.25 9.55005 3.48122 9.55005 5C9.55005 5.42118 9.45537 5.82024 9.28613 6.17706L11.6343 7.93822C12.246 7.50476 12.9933 7.25 13.8 7.25C14.5644 7.25 15.2753 7.47866 15.8681 7.8713L17.3985 6.34086C17.1766 5.94418 17.05 5.48687 17.05 5ZM13.8 8.75C12.5574 8.75 11.55 9.75736 11.55 11C11.55 12.2426 12.5574 13.25 13.8 13.25C15.0427 13.25 16.05 12.2426 16.05 11C16.05 9.75736 15.0427 8.75 13.8 8.75ZM5.55005 18C5.55005 17.3096 6.10969 16.75 6.80005 16.75C7.4904 16.75 8.05005 17.3096 8.05005 18C8.05005 18.6904 7.4904 19.25 6.80005 19.25C6.10969 19.25 5.55005 18.6904 5.55005 18ZM13.8 18.75C13.1097 18.75 12.55 19.3096 12.55 20C12.55 20.6904 13.1097 21.25 13.8 21.25C14.4904 21.25 15.05 20.6904 15.05 20C15.05 19.3096 14.4904 18.75 13.8 18.75ZM18.55 17C18.55 16.3096 19.1097 15.75 19.8 15.75C20.4904 15.75 21.05 16.3096 21.05 17C21.05 17.6904 20.4904 18.25 19.8 18.25C19.1097 18.25 18.55 17.6904 18.55 17ZM6.80005 3.75C6.10969 3.75 5.55005 4.30964 5.55005 5C5.55005 5.69036 6.10969 6.25 6.80005 6.25C7.4904 6.25 8.05005 5.69036 8.05005 5C8.05005 4.30964 7.4904 3.75 6.80005 3.75Z" fill="black"/>
</svg>
