<svg width="24" height="24" viewBox="0 0 24 24" fill="none" xmlns="http://www.w3.org/2000/svg">
<path fill-rule="evenodd" clip-rule="evenodd" d="M16.25 5C16.25 3.48122 17.4812 2.25 19 2.25C20.5188 2.25 21.75 3.48122 21.75 5C21.75 6.51878 20.5188 7.75 19 7.75C18.5131 7.75 18.0558 7.62349 17.6592 7.40154L16.1287 8.93199C16.5213 9.52481 16.75 10.2357 16.75 11C16.75 11.7643 16.5213 12.4752 16.1287 13.0681L17.6591 14.5985C18.0558 14.3765 18.5131 14.25 19 14.25C20.5188 14.25 21.75 15.4812 21.75 17C21.75 18.5188 20.5188 19.75 19 19.75C17.4812 19.75 16.25 18.5188 16.25 17C16.25 16.5131 16.3765 16.0558 16.5985 15.6592L15.068 14.1287C14.7159 14.3619 14.3222 14.5373 13.9003 14.6412L13.9335 17.4125C14.9928 17.7947 15.75 18.8089 15.75 20C15.75 21.5188 14.5188 22.75 13 22.75C11.4812 22.75 10.25 21.5188 10.25 20C10.25 18.6759 11.1858 17.5703 12.4322 17.3087L12.4009 14.7024C11.8454 14.6132 11.3308 14.402 10.8852 14.0972L8.24325 16.4089C8.56237 16.858 8.75 17.4071 8.75 18C8.75 19.5188 7.51878 20.75 6 20.75C4.48122 20.75 3.25 19.5188 3.25 18C3.25 16.4812 4.48122 15.25 6 15.25C6.37253 15.25 6.72777 15.3241 7.05177 15.4583L9.83943 13.0191C9.46631 12.4363 9.25 11.7434 9.25 11C9.25 10.2813 9.45216 9.60988 9.80272 9.03942L7.49492 7.30857C7.06457 7.58782 6.55123 7.75 6 7.75C4.48122 7.75 3.25 6.51878 3.25 5C3.25 3.48122 4.48122 2.25 6 2.25C7.51878 2.25 8.75 3.48122 8.75 5C8.75 5.42114 8.65533 5.82017 8.48612 6.17697L10.8344 7.93816C11.4461 7.50474 12.1933 7.25 13 7.25C13.7643 7.25 14.4752 7.47867 15.0681 7.87132L16.5985 6.3409C16.3765 5.94421 16.25 5.48688 16.25 5Z" fill="black"/>
</svg>
