<svg width="24" height="24" viewBox="0 0 24 24" fill="none" xmlns="http://www.w3.org/2000/svg">
<rect width="24" height="24" rx="12" fill="#FF3B77" fill-opacity="0.2"/>
<path d="M11.9995 7.20488C12.1204 7.11706 12.2736 7.01631 12.4569 6.91596C12.9504 6.64592 13.6698 6.375 14.5689 6.375C15.4982 6.375 16.4263 6.74856 17.1196 7.49053C17.8149 8.23477 18.2495 9.32197 18.2495 10.7109C18.2495 12.7835 16.7801 14.5154 15.3699 15.6843C14.6524 16.279 13.9204 16.7531 13.3343 17.0797C13.0413 17.2431 12.7803 17.3721 12.5714 17.4619C12.4674 17.5066 12.3712 17.5439 12.2872 17.5709C12.2189 17.5928 12.1091 17.625 11.9995 17.625C11.8899 17.625 11.7801 17.5928 11.7118 17.5709C11.6278 17.5439 11.5316 17.5066 11.4276 17.4619C11.2188 17.3721 10.9577 17.2431 10.6647 17.0797C10.0786 16.7531 9.34663 16.279 8.62909 15.6843C7.21897 14.5154 5.74951 12.7835 5.74951 10.7109C5.74951 9.32197 6.18406 8.23477 6.87944 7.49053C7.57269 6.74856 8.50081 6.375 9.43007 6.375C10.3292 6.375 11.0486 6.64592 11.5421 6.91596C11.7254 7.01631 11.8786 7.11706 11.9995 7.20488Z" fill="#FF3B77"/>
</svg>
