<svg width="25" height="24" viewBox="0 0 25 24" fill="none" xmlns="http://www.w3.org/2000/svg">
<path d="M20.8001 19.1429V9.39827C20.8001 9.14572 20.6887 8.90603 20.4957 8.74317L13.3528 2.71638C13.0335 2.447 12.5666 2.447 12.2473 2.71638L5.10445 8.74317C4.91142 8.90603 4.80005 9.14572 4.80005 9.39827V19.1429C4.80005 19.6162 5.1838 20 5.65719 20H9.94291C10.4163 20 10.8 19.6162 10.8 19.1429V14.8571C10.8 14.3838 11.1838 14 11.6572 14H13.9429C14.4163 14 14.8 14.3838 14.8 14.8571V19.1429C14.8 19.6162 15.1838 20 15.6572 20H19.9429C20.4163 20 20.8001 19.6162 20.8001 19.1429Z" stroke="black" stroke-width="1.5" stroke-linejoin="round"/>
</svg>
