<svg width="50" height="50" viewBox="0 0 50 50" fill="none" xmlns="http://www.w3.org/2000/svg">
<rect width="50" height="50" rx="14" fill="url(#paint0_linear_1771_53802)"/>
<path fill-rule="evenodd" clip-rule="evenodd" d="M34.6667 14.4514C35.3961 14.4514 36.3334 15.2731 36.3334 16.7618V20.7273H30.5185L29.5074 14.4514H34.6667ZM27.4816 14.4514L28.4927 20.7273H21.8187L20.5548 14.4514H27.4816ZM18.5147 14.4514L19.7786 20.7273H13.6667V16.7618C13.6667 15.273 14.6039 14.4514 15.3334 14.4514H18.5147ZM13.6667 22.7273H36.3334V34.1411C36.3334 35.6298 35.3961 36.4514 34.6667 36.4514H15.3334C14.6039 36.4514 13.6667 35.6298 13.6667 34.1411V22.7273ZM38.3334 16.7618C38.3334 14.594 36.8828 12.4514 34.6667 12.4514H15.3334C13.1172 12.4514 11.6667 14.594 11.6667 16.7618V34.1411C11.6667 36.3089 13.1172 38.4514 15.3334 38.4514H34.6667C36.8828 38.4514 38.3334 36.3089 38.3334 34.1411V16.7618Z" fill="white"/>
<path fill-rule="evenodd" clip-rule="evenodd" d="M22.978 25.4548C23.2998 25.2798 23.6916 25.2947 23.9992 25.4937L28.3325 28.2974C28.6173 28.4816 28.7893 28.7977 28.7893 29.137C28.7893 29.4762 28.6173 29.7923 28.3325 29.9766L23.9992 32.7803C23.6916 32.9793 23.2998 32.9942 22.978 32.8191C22.6562 32.644 22.4559 32.307 22.4559 31.9407V26.3333C22.4559 25.9669 22.6562 25.6299 22.978 25.4548Z" fill="white"/>
<defs>
<linearGradient id="paint0_linear_1771_53802" x1="49.039" y1="50" x2="-0.960998" y2="-1.34586e-06" gradientUnits="userSpaceOnUse">
<stop stop-color="#FBE18A"/>
<stop offset="0.21" stop-color="#FCBB45"/>
<stop offset="0.38" stop-color="#F75274"/>
<stop offset="0.52" stop-color="#D53692"/>
<stop offset="0.74" stop-color="#8F39CE"/>
<stop offset="1" stop-color="#5B4FE9"/>
</linearGradient>
</defs>
</svg>
