<svg width="25" height="24" viewBox="0 0 25 24" fill="none" xmlns="http://www.w3.org/2000/svg">
<path d="M12.8 2.75V20.25M12.8 20.25H7.55003M12.8 20.25H18.05M3.55003 5.75H8.56396C8.71921 5.75 8.87232 5.71386 9.01118 5.64443L10.5889 4.85557C10.7277 4.78614 10.8809 4.75 11.0361 4.75H14.564C14.7192 4.75 14.8723 4.78614 15.0112 4.85557L16.5889 5.64443C16.7277 5.71386 16.8809 5.75 17.0361 5.75H22.05M6.30003 5.75L3.54385 14.4779C3.40168 14.9281 3.59096 15.4242 4.02248 15.6157C5.57532 16.3048 7.02474 16.3048 8.57759 15.6157C9.00911 15.4242 9.19838 14.9281 9.05622 14.4779L6.30003 5.75ZM19.3 5.75L16.5438 14.4779C16.4017 14.9281 16.591 15.4242 17.0225 15.6157C18.5753 16.3048 20.0247 16.3048 21.5776 15.6157C22.0091 15.4242 22.1984 14.9281 22.0562 14.4779L19.3 5.75Z" stroke="black" stroke-width="1.5" stroke-linecap="round" stroke-linejoin="round"/>
</svg>
