<svg width="25" height="24" viewBox="0 0 25 24" fill="none" xmlns="http://www.w3.org/2000/svg">
<path fill-rule="evenodd" clip-rule="evenodd" d="M7.4413 9.29847C9.29629 7.44348 12.3039 7.44348 14.1589 9.29847L14.502 9.64161C15.2776 10.4172 15.7296 11.3963 15.8563 12.4071C15.9077 12.8181 15.6163 13.1931 15.2053 13.2445C14.7943 13.296 14.4194 13.0046 14.3679 12.5936C14.2812 11.9019 13.973 11.2339 13.4414 10.7023L13.0982 10.3591C11.829 9.08993 9.77116 9.08992 8.50196 10.3591L5.15881 13.7023C3.88961 14.9715 3.88961 17.0293 5.15881 18.2985L5.50196 18.6416C6.77116 19.9108 8.82893 19.9108 10.0981 18.6416L10.2697 18.4701C10.5626 18.1772 11.0375 18.1771 11.3304 18.47C11.6233 18.7629 11.6233 19.2378 11.3304 19.5307L11.1589 19.7023C9.30384 21.5572 6.29629 21.5573 4.4413 19.7023L4.09815 19.3591C2.24316 17.5041 2.24316 14.4966 4.09815 12.6416L7.4413 9.29847Z" fill="black"/>
<path fill-rule="evenodd" clip-rule="evenodd" d="M14.4413 5.29847C16.2963 3.44348 19.3038 3.44348 21.1588 5.29847L21.502 5.64161C23.3569 7.4966 23.3569 10.5041 21.502 12.3591L18.1588 15.7023C16.3038 17.5573 13.2963 17.5573 11.4413 15.7023L11.0981 15.3591C10.3225 14.5835 9.8705 13.6044 9.74387 12.5936C9.69239 12.1826 9.98383 11.8077 10.3948 11.7562C10.8059 11.7047 11.1808 11.9961 11.2323 12.4071C11.3189 13.0988 11.6272 13.7668 12.1588 14.2985L12.502 14.6416C13.7712 15.9108 15.8289 15.9108 17.0981 14.6416L20.4413 11.2985C21.7105 10.0293 21.7105 7.97148 20.4413 6.70228L20.0981 6.35913C18.8289 5.08993 16.7712 5.08993 15.502 6.35913L15.3305 6.53063C15.0376 6.82356 14.5628 6.82362 14.2698 6.53077C13.9769 6.23791 13.9768 5.76304 14.2697 5.47011L14.4413 5.29847Z" fill="black"/>
</svg>
