<svg width="24" height="25" viewBox="0 0 24 25" fill="none" xmlns="http://www.w3.org/2000/svg">
<path fill-rule="evenodd" clip-rule="evenodd" d="M4.005 10.75C4.005 6.33172 7.58672 2.75 12.005 2.75C16.4233 2.75 20.005 6.33172 20.005 10.75C20.005 13.2452 18.8933 15.5673 17.5776 17.4517C16.256 19.3446 14.6784 20.8674 13.6337 21.7797C12.6935 22.6009 11.3165 22.6009 10.3763 21.7797C9.33156 20.8674 7.754 19.3446 6.4324 17.4517C5.11671 15.5673 4.005 13.2452 4.005 10.75ZM8.88 10.75C8.88 9.02411 10.2791 7.625 12.005 7.625C13.7309 7.625 15.13 9.02411 15.13 10.75C15.13 12.4759 13.7309 13.875 12.005 13.875C10.2791 13.875 8.88 12.4759 8.88 10.75Z" fill="black"/>
</svg>
