<svg width="50" height="50" viewBox="0 0 50 50" fill="none" xmlns="http://www.w3.org/2000/svg">
<g clip-path="url(#clip0_1770_51390)">
<rect width="50" height="50" rx="12.5" fill="url(#paint0_radial_1770_51390)"/>
<path fill-rule="evenodd" clip-rule="evenodd" d="M12.5 24.6348C12.5 17.6635 17.9639 12.5 25.0104 12.5C32.0569 12.5 37.5208 17.6667 37.5208 24.6379C37.5208 31.6091 32.0569 36.7727 25.0104 36.7727C23.7437 36.7727 22.5302 36.6038 21.3887 36.291C21.1666 36.2316 20.9289 36.2472 20.7193 36.3411L18.236 37.4357C18.086 37.5019 17.9221 37.5302 17.7586 37.5181C17.5951 37.5061 17.4371 37.4541 17.2984 37.3667C17.1598 37.2793 17.0447 37.1592 16.9633 37.0169C16.8819 36.8746 16.8367 36.7145 16.8317 36.5506L16.7629 34.3238C16.7567 34.0486 16.6316 33.7921 16.4283 33.6107C13.995 31.434 12.5 28.2815 12.5 24.6348ZM21.1728 22.3548L17.4979 28.1845C17.1445 28.7443 17.8326 29.373 18.358 28.9726L22.305 25.9765C22.4349 25.8778 22.5934 25.8242 22.7564 25.8236C22.9195 25.823 23.0784 25.8756 23.2089 25.9733L26.1332 28.1657C26.3406 28.3215 26.5781 28.4326 26.8306 28.492C27.0831 28.5513 27.3452 28.5577 27.6003 28.5107C27.8554 28.4637 28.098 28.3643 28.3127 28.2188C28.5275 28.0733 28.7097 27.8848 28.848 27.6653L32.526 21.8388C32.8763 21.2789 32.1883 20.6472 31.6628 21.0475L27.7158 24.0437C27.5859 24.1423 27.4274 24.196 27.2644 24.1965C27.1013 24.1971 26.9425 24.1445 26.8119 24.0468L23.8876 21.8544C23.6802 21.6986 23.4427 21.5876 23.1902 21.5282C22.9377 21.4688 22.6756 21.4624 22.4205 21.5095C22.1654 21.5565 21.9228 21.6559 21.7081 21.8014C21.4933 21.9469 21.3111 22.1353 21.1728 22.3548Z" fill="white"/>
</g>
<defs>
<radialGradient id="paint0_radial_1770_51390" cx="0" cy="0" r="1" gradientUnits="userSpaceOnUse" gradientTransform="translate(8.375 49.9986) scale(55 54.9985)">
<stop stop-color="#0099FF"/>
<stop offset="0.6" stop-color="#A033FF"/>
<stop offset="0.9" stop-color="#FF5280"/>
<stop offset="1" stop-color="#FF7061"/>
</radialGradient>
<clipPath id="clip0_1770_51390">
<rect width="50" height="50" rx="14" fill="white"/>
</clipPath>
</defs>
</svg>
