<svg width="25" height="24" viewBox="0 0 25 24" fill="none" xmlns="http://www.w3.org/2000/svg">
<path d="M8.78946 5.39755L8.1052 5.23965C7.52657 5.10612 6.91996 5.28009 6.50005 5.7C6.08014 6.11991 5.90617 6.72651 6.0397 7.30515L6.1976 7.9894C6.37961 8.7781 6.05439 9.59711 5.38091 10.0461L4.5489 10.6008C4.08106 10.9127 3.80005 11.4377 3.80005 12C3.80005 12.5623 4.08106 13.0873 4.5489 13.3992L5.38091 13.9539C6.05439 14.4029 6.37961 15.2219 6.19761 16.0106L6.0397 16.6949C5.90617 17.2735 6.08014 17.8801 6.50005 18.3C6.91996 18.7199 7.52656 18.8939 8.1052 18.7604L8.78945 18.6024C9.57815 18.4204 10.3972 18.7457 10.8461 19.4191L11.4008 20.2512C11.7127 20.719 12.2377 21 12.8 21C13.3623 21 13.8873 20.719 14.1992 20.2512L14.7539 19.4191C15.2029 18.7457 16.0219 18.4204 16.8106 18.6024L17.4949 18.7604C18.0735 18.8939 18.6801 18.7199 19.1 18.3C19.5199 17.8801 19.6939 17.2735 19.5604 16.6949L19.4024 16.0106C19.2204 15.2219 19.5457 14.4029 20.2191 13.9539L21.0512 13.3992C21.519 13.0873 21.8 12.5623 21.8 12C21.8 11.4377 21.519 10.9127 21.0512 10.6008L20.2191 10.0461C19.5457 9.59711 19.2204 8.7781 19.4024 7.98941L19.5604 7.30515C19.6939 6.72652 19.5199 6.11991 19.1 5.7C18.6801 5.28009 18.0735 5.10612 17.4949 5.23965L16.8106 5.39755C16.0219 5.57956 15.2029 5.25434 14.7539 4.58086L14.1992 3.74884C13.8873 3.28101 13.3623 3 12.8 3C12.2377 3 11.7127 3.28101 11.4008 3.74885L10.8461 4.58086C10.3972 5.25434 9.57815 5.57956 8.78946 5.39755Z" stroke="black" stroke-width="1.5" stroke-linejoin="round"/>
<path d="M15.8 12C15.8 13.6569 14.4569 15 12.8 15C11.1431 15 9.80005 13.6569 9.80005 12C9.80005 10.3431 11.1431 9 12.8 9C14.4569 9 15.8 10.3431 15.8 12Z" stroke="black" stroke-width="1.5" stroke-linejoin="round"/>
</svg>
