<svg width="50" height="50" viewBox="0 0 50 50" fill="none" xmlns="http://www.w3.org/2000/svg">
<rect width="50" height="50" rx="14" fill="#0B0C11"/>
<g clip-path="url(#clip0_1770_51398)">
<path d="M31.3855 24.0169C31.2695 23.9613 31.1517 23.9078 31.0324 23.8566C30.8246 20.0275 28.7323 17.8353 25.2191 17.8129C25.2032 17.8128 25.1873 17.8128 25.1714 17.8128C23.0701 17.8128 21.3224 18.7098 20.2467 20.342L22.1789 21.6674C22.9825 20.4482 24.2436 20.1883 25.1724 20.1883C25.1831 20.1883 25.1938 20.1883 25.2045 20.1884C26.3612 20.1958 27.2341 20.5321 27.7991 21.188C28.2102 21.6655 28.4852 22.3253 28.6214 23.1581C27.5958 22.9838 26.4866 22.9302 25.3009 22.9982C21.9607 23.1906 19.8133 25.1386 19.9575 27.8455C20.0307 29.2186 20.7148 30.3999 21.8836 31.1715C22.8718 31.8238 24.1446 32.1429 25.4673 32.0706C27.2142 31.9749 28.5846 31.3084 29.5407 30.0897C30.2668 29.1642 30.726 27.9649 30.9288 26.4537C31.7613 26.9561 32.3783 27.6173 32.719 28.4121C33.2984 29.7631 33.3322 31.9833 31.5206 33.7933C29.9334 35.379 28.0256 36.0649 25.1422 36.0861C21.9438 36.0624 19.5248 35.0367 17.9521 33.0374C16.4794 31.1652 15.7183 28.4611 15.6899 25.0001C15.7183 21.5391 16.4794 18.835 17.9521 16.9628C19.5248 14.9635 21.9437 13.9378 25.1421 13.914C28.3638 13.938 30.8249 14.9687 32.4578 16.9776C33.2584 17.9628 33.8621 19.2017 34.2601 20.6462L36.5243 20.0421C36.0419 18.264 35.2829 16.7319 34.25 15.4612C32.1566 12.8857 29.0949 11.5659 25.15 11.5386H25.1343C21.1974 11.5658 18.17 12.8906 16.1363 15.476C14.3265 17.7767 13.3929 20.9779 13.3615 24.9906L13.3615 25.0001L13.3615 25.0096C13.3929 29.0223 14.3265 32.2236 16.1363 34.5243C18.17 37.1096 21.1974 38.4344 25.1343 38.4616H25.15C28.6501 38.4374 31.1172 37.521 33.1496 35.4904C35.8087 32.8339 35.7286 29.504 34.8522 27.4598C34.2235 25.9939 33.0247 24.8033 31.3855 24.0169ZM25.3423 29.6986C23.8783 29.7811 22.3575 29.124 22.2825 27.7165C22.2269 26.673 23.0251 25.5086 25.4321 25.3699C25.7078 25.354 25.9783 25.3462 26.244 25.3462C27.1183 25.3462 27.9362 25.4311 28.6798 25.5937C28.4025 29.0575 26.7756 29.6199 25.3423 29.6986Z" fill="white"/>
</g>
<defs>
<clipPath id="clip0_1770_51398">
<rect width="26.9231" height="26.9231" fill="white" transform="translate(11.5385 11.5386)"/>
</clipPath>
</defs>
</svg>
