<svg width="25" height="24" viewBox="0 0 25 24" fill="none" xmlns="http://www.w3.org/2000/svg">
<path fill-rule="evenodd" clip-rule="evenodd" d="M3.79999 12C3.79999 10.8954 4.69542 10 5.79999 10C6.90456 10 7.79999 10.8954 7.79999 12C7.79999 13.1046 6.90456 14 5.79999 14C4.69542 14 3.79999 13.1046 3.79999 12ZM10.8 12C10.8 10.8954 11.6954 10 12.8 10C13.9046 10 14.8 10.8954 14.8 12C14.8 13.1046 13.9046 14 12.8 14C11.6954 14 10.8 13.1046 10.8 12ZM17.8 12C17.8 10.8954 18.6954 10 19.8 10C20.9046 10 21.8 10.8954 21.8 12C21.8 13.1046 20.9046 14 19.8 14C18.6954 14 17.8 13.1046 17.8 12Z" fill="black"/>
</svg>
