<svg width="25" height="24" viewBox="0 0 25 24" fill="none" xmlns="http://www.w3.org/2000/svg">
<path fill-rule="evenodd" clip-rule="evenodd" d="M11.7559 2.20391C12.1127 2.01939 12.5991 1.9668 13.0395 2.23843C14.0263 2.84705 14.7183 3.49524 15.1857 4.18893C15.6563 4.88749 15.8744 5.59584 15.9633 6.2852C16.0502 6.95947 16.013 7.62162 15.9766 8.20723C15.975 8.23367 15.9734 8.25994 15.9717 8.28605C15.9399 8.7959 15.9119 9.24453 15.9381 9.67544C16.4354 8.86892 16.5713 8.42399 16.8061 7.65498C16.8536 7.49953 16.9051 7.33084 16.9645 7.14325C17.1579 6.53206 17.9448 6.13067 18.5794 6.62031L18.1213 7.21412L18.5794 6.62031C19.3359 7.20396 20.0174 8.18012 20.5315 9.30886C21.0516 10.4508 21.4297 11.8119 21.5354 13.2229C21.7472 16.0502 20.8587 19.1826 17.6997 21.0147C16.2619 21.8486 14.5736 22.3179 12.888 22.3416C12.8672 22.342 12.8464 22.3423 12.8255 22.3423C11.1485 22.355 9.47725 21.9255 8.06124 20.9741C4.47341 18.5635 3.87366 13.8167 5.97397 10.6218C6.63287 9.61949 7.41001 8.61502 8.14392 7.66642C8.44844 7.27282 8.74553 6.88883 9.02364 6.51861C10.0081 5.20808 10.7463 4.08096 11.0115 3.12018C11.124 2.7127 11.408 2.38385 11.7559 2.20391ZM12.8568 20.8419C12.8426 20.8421 12.8284 20.8422 12.8142 20.8423C11.7094 20.8395 10.7116 19.8333 10.7116 18.4981C10.7116 17.7967 11.0056 17.1574 11.4313 16.5998C11.8575 16.0417 12.3834 15.6091 12.7588 15.3411L12.7589 15.341C12.7956 15.3148 12.8452 15.3148 12.882 15.341L12.882 15.3411C13.2575 15.6091 13.7834 16.0417 14.2096 16.5998C14.6353 17.1574 14.9293 17.7967 14.9293 18.4981C14.9293 19.8189 13.9494 20.8193 12.8568 20.8419ZM16.0712 20.157C16.3716 20.0279 16.6644 19.8811 16.9471 19.7171C19.4626 18.2582 20.2227 15.7788 20.0396 13.335C19.9479 12.1105 19.6177 10.9213 19.1664 9.93064C18.863 9.26443 18.5173 8.71508 18.175 8.30971C17.9547 9.02438 17.7428 9.62351 17.1545 10.5597C16.8774 11.0006 16.3952 11.2499 15.8961 11.2499C15.2235 11.2499 14.5335 10.7758 14.4577 9.98281C14.3999 9.37858 14.4382 8.77039 14.4725 8.22621C14.4749 8.18856 14.4772 8.15121 14.4795 8.1142C14.5165 7.5191 14.5419 6.9909 14.4756 6.47699C14.4113 5.97817 14.2606 5.5005 13.9416 5.02701C13.6421 4.58239 13.1732 4.11054 12.4268 3.62571C12.0557 4.86486 11.1665 6.16343 10.223 7.41952C9.91704 7.82675 9.60346 8.23199 9.28988 8.63722C8.57151 9.56555 7.8532 10.4938 7.22739 11.4458C5.54444 14.0058 6.04365 17.8114 8.89778 19.7291C9.10693 19.8696 9.32415 19.9963 9.54811 20.1096C9.33133 19.6134 9.21162 19.0652 9.21162 18.4981C9.21162 17.3623 9.68888 16.4102 10.2391 15.6895C10.7889 14.9695 11.4436 14.437 11.8872 14.1203C12.4454 13.7217 13.1955 13.7217 13.7537 14.1204C14.1973 14.4371 14.852 14.9695 15.4018 15.6895C15.952 16.4101 16.4293 17.3622 16.4293 18.4981C16.4293 19.0834 16.3016 19.6485 16.0712 20.157Z" fill="black"/>
</svg>
