<svg width="25" height="24" viewBox="0 0 25 24" fill="none" xmlns="http://www.w3.org/2000/svg">
<path d="M20.0478 4.75206C21.9027 6.60695 23.05 9.16945 23.05 11.9999C23.05 14.8303 21.9027 17.3928 20.0478 19.2477M16.6891 8.11144C17.6844 9.10674 18.3 10.4817 18.3 12.0005C18.3 13.5193 17.6844 14.8943 16.6891 15.8896M4.55005 7.75011H6.15496C6.57438 7.75011 6.98319 7.61825 7.32357 7.37318L12.2578 3.82046C12.5886 3.58233 13.05 3.81868 13.05 4.22623V19.774C13.05 20.1815 12.5886 20.4179 12.2578 20.1797L7.32357 16.627C6.98319 16.3819 6.57438 16.2501 6.15496 16.2501H4.55005C3.44548 16.2501 2.55005 15.3547 2.55005 14.2501V9.75011C2.55005 8.64554 3.44548 7.75011 4.55005 7.75011Z" stroke="black" stroke-width="1.5" stroke-linecap="round" stroke-linejoin="round"/>
</svg>
